<?xml version="1.0" standalone="no"?>
<!DOCTYPE svg PUBLIC "-//W3C//DTD SVG 20010904//EN"
 "http://www.w3.org/TR/2001/REC-SVG-20010904/DTD/svg10.dtd">
<svg version="1.0" xmlns="http://www.w3.org/2000/svg"
 width="272.000000pt" height="272.000000pt" viewBox="0 0 272.000000 272.000000"
 preserveAspectRatio="xMidYMid meet">
<metadata>
Created by potrace 1.11, written by Peter Selinger 2001-2013
</metadata>
<g transform="translate(0.000000,272.000000) scale(0.100000,-0.100000)"
fill="#000000" stroke="none">
<path d="M510 2704 c-217 -59 -388 -218 -464 -434 -28 -78 -31 -95 -30 -215 0
-116 3 -139 28 -210 37 -107 87 -187 165 -266 101 -100 240 -172 363 -186 54
-7 56 -12 6 -19 -172 -25 -349 -135 -449 -280 -179 -261 -151 -625 67 -848
264 -271 698 -275 960 -8 92 93 164 228 184 345 7 38 13 67 15 65 1 -2 5 -23
8 -48 8 -61 30 -126 62 -191 40 -78 61 -106 140 -184 53 -52 92 -81 155 -111
122 -59 166 -69 310 -69 111 1 134 4 205 29 171 59 307 176 383 327 56 111 75
192 75 309 0 117 -20 200 -74 307 -51 102 -128 188 -228 254 -71 47 -195 95
-263 103 -39 5 -48 16 -15 17 15 1 30 2 35 3 4 1 25 5 47 10 93 18 219 91 303
175 130 130 194 288 195 476 0 234 -108 432 -306 562 -113 74 -189 96 -342
100 -91 2 -147 -2 -186 -12 -248 -65 -439 -265 -490 -513 -14 -66 -22 -64 -33
7 -10 63 -60 175 -111 246 -82 116 -196 199 -338 246 -67 23 -96 27 -200 27
-79 1 -141 -4 -177 -14z m855 -771 c25 -168 156 -360 310 -452 45 -27 197 -90
220 -91 3 0 22 0 42 0 40 0 41 -6 3 -13 -14 -3 -43 -8 -64 -12 -22 -5 -66 -18
-97 -31 -210 -86 -356 -254 -408 -471 -17 -70 -19 -75 -26 -48 -41 174 -96
279 -200 379 -93 89 -248 168 -353 179 -39 4 -55 17 -21 17 37 0 149 34 211
65 124 60 241 180 302 308 31 65 40 93 61 191 8 36 12 32 20 -21z m805 -829
c200 -79 311 -285 263 -487 -55 -239 -301 -379 -535 -307 -167 51 -284 205
-292 381 -8 190 109 360 291 420 72 24 205 21 273 -7z"/>
</g>
</svg>
