<?xml version="1.0" encoding="utf-8"?>
<!-- Svg Vector Icons : http://www.onlinewebfonts.com/icon -->
<!DOCTYPE svg PUBLIC "-//W3C//DTD SVG 1.1//EN" "http://www.w3.org/Graphics/SVG/1.1/DTD/svg11.dtd">
<svg version="1.1" xmlns="http://www.w3.org/2000/svg" xmlns:xlink="http://www.w3.org/1999/xlink" x="0px" y="0px" viewBox="0 0 1000 1000" enable-background="new 0 0 1000 1000" xml:space="preserve">
<metadata> Svg Vector Icons : http://www.onlinewebfonts.com/icon </metadata>
<g><path d="M500.1,80.1c74.8,0,154.8,44.2,154.8,168.4c0,77.4-35.3,164-90,220.6l-11.1,11.5l-5,15.2c-15.9,48.3-15.1,90.3,2.5,124.9c13.2,26.3,36.7,46.9,62.6,55.4c153.7,50.9,234,121.5,234,145.1V852c0,14.3-58.8,67.7-346.5,67.7c-286.9,0-349-54.2-349-67.7v-30.8c1.2-23.1,78.8-91.5,229.1-145.9c23.1-8.5,53.7-30.3,70.1-66.1c10.9-24,19.8-63.5-0.1-115.9l-5.2-13.7L436,469.3c-54.7-55.9-90.1-142.7-90.1-221C345.8,124.3,425.5,80.1,500.1,80.1 M500.1,10c-121,0-224.4,82-224.4,238.4c0,102.2,47.4,205.9,110.1,270c24.5,64.1-19.3,87.9-28.4,91.3C230.7,655.5,82.2,739,82.2,821.4v30.8C82.2,964.5,299.8,990,501.2,990c201.7,0,416.6-25.5,416.6-137.7v-30.8c0-84.8-149.2-167.7-282.1-211.7c-6-2-44.4-19.3-20.5-91.9c62.1-64.3,109.8-167.7,109.8-269.4C725.1,92,621,10,500.1,10L500.1,10z"/></g>
</svg>