<?xml version="1.0" encoding="UTF-8"?>
<!DOCTYPE svg PUBLIC "-//W3C//DTD SVG 1.1//EN" "http://www.w3.org/Graphics/SVG/1.1/DTD/svg11.dtd">
<!-- Creator: CorelDRAW X8 -->
<svg xmlns:xlink="http://www.w3.org/1999/xlink" xmlns="http://www.w3.org/2000/svg" xml:space="preserve" width="83px" height="50px" version="1.1"
style="shape-rendering:geometricPrecision; text-rendering:geometricPrecision; image-rendering:optimizeQuality; fill-rule:evenodd; clip-rule:evenodd"
 viewBox="0 0 59 35">
 <defs>
  <style type="text/css">
   <![CDATA[
    .str0 {stroke:#32C69A;stroke-width:0.0912322}
    .fil0 {fill:#32C69A}
   ]]>
  </style>
 </defs>
 <g id="Vrstva_x0020_1">
  <metadata id="CorelCorpID_0Corel-Layer"/>
  <path class="fil0" d="M16 25c-2,2 -1,1 -3,2 -2,4 -2,3 -2,8l37 0c0,-11 -7,-9 -14,-12 -1,-7 2,-1 3,-16 0,-6 -6,-9 -12,-6 -9,21 14,19 -9,24z"/>
  <path class="fil0" d="M40 14c0,5 1,8 5,12 4,3 3,4 4,9l10 0c-1,-8 -5,-6 -11,-10 1,-6 3,0 3,-12 0,-4 -5,-4 -8,-5 -1,2 -3,3 -3,6z"/>
  <path class="fil0 str0" d="M13 27c1,-2 0,-1 3,-2 0,-7 2,2 2,-14 -4,-4 -4,-4 -11,1 0,14 3,6 3,13 -6,4 -9,2 -10,10l9 0c0,-4 0,-4 1,-7 1,-1 1,-1 3,-1z"/>
 </g>
</svg>
