<?xml version="1.0" encoding="UTF-8"?>
<!DOCTYPE svg PUBLIC "-//W3C//DTD SVG 1.1//EN" "http://www.w3.org/Graphics/SVG/1.1/DTD/svg11.dtd">
<!-- Creator: CorelDRAW X8 -->
<svg xmlns:xlink="http://www.w3.org/1999/xlink" xmlns="http://www.w3.org/2000/svg" xml:space="preserve" width="27px" height="50px" version="1.1"
style="shape-rendering:geometricPrecision; text-rendering:geometricPrecision; image-rendering:optimizeQuality; fill-rule:evenodd; clip-rule:evenodd"
 viewBox="0 0 29 53">
 <defs>
  <style type="text/css">
   <![CDATA[
    .fil0 {fill:#32C69A}
   ]]>
  </style>
 </defs>
 <g id="Vrstva_x0020_1">
  <metadata id="CorelCorpID_0Corel-Layer"/>
  <g id="_2600309150352">
  </g>
  <g id="_2600309153680">
  </g>
  <g id="_2600309152368">
  </g>
  <g id="_2600309153488">
  </g>
  <g id="_2600309153136">
  </g>
  <g id="_2600309152304">
  </g>
  <g id="_2600309153232">
  </g>
  <g id="_2600309155792">
  </g>
  <g id="_2600309154480">
  </g>
  <g id="_2600309154576">
  </g>
  <g id="_2600309156048">
  </g>
  <g id="_2600309154928">
  </g>
  <g id="_2600309154832">
  </g>
  <g id="_2600309155504">
  </g>
  <g id="_2600309158000">
  </g>
  <g id="_2600309156592">
   <path class="fil0" d="M0 43c0,14 29,14 29,0l0 -15 -29 0 0 15z"/>
   <path class="fil0" d="M15 10c1,7 3,2 4,8 1,6 -2,4 -4,8l14 0c0,-6 0,-8 -3,-12 -2,-3 -5,-4 -11,-4z"/>
   <path class="fil0" d="M14 10c-12,0 -14,5 -14,16l14 0c-2,-5 -5,-1 -4,-8 1,-6 4,-1 4,-8z"/>
   <polygon class="fil0" points="12,22 17,22 17,15 12,15 "/>
   <path class="fil0" d="M14 10l1 0 0 -5c-1,-1 -3,-1 -4,-2 -2,-2 -1,-2 -4,-3 0,7 4,3 6,7 1,1 1,1 1,3z"/>
  </g>
 </g>
</svg>
