<?xml version="1.0" encoding="UTF-8"?>
<!DOCTYPE svg PUBLIC "-//W3C//DTD SVG 1.1//EN" "http://www.w3.org/Graphics/SVG/1.1/DTD/svg11.dtd">
<!-- Creator: CorelDRAW X8 -->
<svg xmlns:xlink="http://www.w3.org/1999/xlink" xmlns="http://www.w3.org/2000/svg" xml:space="preserve" width="50px" height="50px" version="1.1"
style="shape-rendering:geometricPrecision; text-rendering:geometricPrecision; image-rendering:optimizeQuality; fill-rule:evenodd; clip-rule:evenodd"
 viewBox="0 0 26 26">
 <defs>
  <style type="text/css">
   <![CDATA[
    .str0 {stroke:#32C69A;stroke-width:0.0455982}
    .fil0 {fill:#32C69A}
   ]]>
  </style>
 </defs>
 <g id="Vrstva_x0020_1">
  <metadata id="CorelCorpID_0Corel-Layer"/>
  <g id="_2600312943104">
   <path class="fil0" d="M9 7l0 4 4 0c-2,6 -7,4 -7,0 0,-2 1,-3 3,-4zm11 3l0 1 -4 0c1,-1 1,-1 4,-1zm-5 1c0,-2 1,0 0,0 0,0 0,1 0,0zm5 -4l0 1 -4 0c1,-1 1,-1 4,-1zm-5 1c0,-1 1,0 0,0 0,0 0,1 0,0zm-15 -4c0,2 1,2 3,2l0 10 -2 0 0 2 24 0 0 -2 -2 0 0 -10c4,0 3,-3 1,-3l-23 0c-1,0 -1,0 -1,1z"/>
   <path class="fil0" d="M12 21c0,2 -1,2 -2,3 -1,1 -1,0 -2,2 4,0 4,-2 5,-2 2,0 0,2 4,2 -2,-4 -3,-2 -3,-7l-2 0 0 2z"/>
   <polygon class="fil0 str0" points="12,2 14,2 14,0 12,0 "/>
  </g>
 </g>
</svg>
