<?xml version="1.0" encoding="UTF-8"?>
<!DOCTYPE svg PUBLIC "-//W3C//DTD SVG 1.1//EN" "http://www.w3.org/Graphics/SVG/1.1/DTD/svg11.dtd">
<!-- Creator: CorelDRAW X8 -->
<svg xmlns:xlink="http://www.w3.org/1999/xlink" xmlns="http://www.w3.org/2000/svg" xml:space="preserve" width="541px" height="523px" version="1.1"
style="shape-rendering:geometricPrecision; text-rendering:geometricPrecision; image-rendering:optimizeQuality; fill-rule:evenodd; clip-rule:evenodd"
 viewBox="0 0 234 226">
 <defs>
  <style type="text/css">
   <![CDATA[
    .fil0 {fill:#32C69A}
   ]]>
  </style>
 </defs>
 <g id="Vrstva_x0020_1">
  <metadata id="CorelCorpID_0Corel-Layer"/>
  <g id="_2565016250560">
   <path class="fil0" d="M109 16c-63,0 -96,40 -109,97 13,-9 17,-20 39,-20 19,0 31,8 35,24 13,-10 2,-7 16,-16 18,-11 55,-11 62,16 20,-14 41,-47 82,0 0,-30 -8,-57 -31,-74 -20,-15 -44,-27 -78,-27l0 -16 -16 0 0 16z"/>
   <path class="fil0" d="M109 195c0,13 -11,14 -23,15 -5,-9 -7,-10 -8,-23l-16 0c0,32 7,39 39,39 34,0 24,-84 24,-125l-16 0 0 94z"/>
  </g>
 </g>
</svg>
